<?xml version="1.0" encoding="UTF-8" standalone="no"?>
<svg width="1920px" height="900px" viewBox="0 0 1920 900" version="1.1" xmlns="http://www.w3.org/2000/svg" xmlns:xlink="http://www.w3.org/1999/xlink" xmlns:sketch="http://www.bohemiancoding.com/sketch/ns">
    <!-- Generator: Sketch 3.3 (11970) - http://www.bohemiancoding.com/sketch -->
    <title>bg-banner</title>
    <desc>Created with Sketch.</desc>
    <defs></defs>
    <g id="Page-1" stroke="none" stroke-width="1" fill="none" fill-rule="evenodd" sketch:type="MSPage">
        <g id="bg-banner" sketch:type="MSLayerGroup">
            <g id="Page-1" sketch:type="MSShapeGroup">
                <g id="Imported-Layers">
                    <g id="Group">
                        <path d="M0.605950677,0.79112683 L1919.82107,0.79112683 L1919.82107,899.798889 L0.605950677,899.798889 L0.605950677,0.79112683 L0.605950677,0.79112683 Z" id="Fill-1" fill="#74071B"></path>
                        <path d="M1919.82107,0.79112683 L1812.5756,0.79112683 L1657.87285,262.432352 L1919.82107,291.353432 L1919.82107,0.79112683" id="Fill-2" fill="#9B121D"></path>
                        <path d="M1657.87285,262.432352 L1285.93469,0.79112683 L1812.5756,0.79112683 L1657.87285,262.432352" id="Fill-3" fill="#74071B"></path>
                        <path d="M960.211113,299.327631 L1657.87285,262.432352 L1285.93469,0.79112683 L960.211113,299.327631" id="Fill-4" fill="#74071B"></path>
                        <path d="M1285.93469,0.79112683 L960.211113,299.327631 L1078.02184,0.79112683 L1285.93469,0.79112683" id="Fill-5" fill="#74071B"></path>
                        <path d="M1078.02184,0.79112683 L970.86273,0.79112683 L727.765955,192.444598 L960.211113,299.327631 L1078.02184,0.79112683" id="Fill-6" fill="#74071B"></path>
                        <path d="M970.86273,0.79112683 L727.765955,192.444598 L484.664381,0.79112683 L970.86273,0.79112683" id="Fill-7" fill="#520112"></path>
                        <path d="M727.765955,192.444598 L484.664381,0.79112683 L0.605950677,0.79112683 L0.605950677,15.6397384 L727.765955,192.444598" id="Fill-8" fill="#480011"></path>
                        <path d="M727.765955,192.444598 L32.0522119,416.19864 L0.605950677,253.376348 L0.605950677,15.6397384 L727.765955,192.444598" id="Fill-9" fill="#5E0110"></path>
                        <path d="M0.605950677,253.376348 L32.0522119,416.19864 L0.605950677,510.094007 L0.605950677,253.376348" id="Fill-10" fill="#78020E"></path>
                        <path d="M32.0522119,416.19864 L449.480458,575.023345 L727.765955,192.444598 L32.0522119,416.19864" id="Fill-11" fill="#80020E"></path>
                        <path d="M727.765955,192.444598 L449.480458,575.023345 L960.211113,299.327631 L727.765955,192.444598" id="Fill-12" fill="#87020E"></path>
                        <path d="M960.211113,299.327631 L945.673095,799.802255 L449.480458,575.023345 L960.211113,299.327631" id="Fill-13" fill="#A80909"></path>
                        <path d="M960.211113,299.327631 L945.673095,799.802255 L1657.87285,614.978246 L960.211113,299.327631" id="Fill-14" fill="#B90C0D"></path>
                        <path d="M960.211113,299.327631 L1657.87285,614.978246 L1657.87285,262.432352 L960.211113,299.327631" id="Fill-15" fill="#A70714"></path>
                        <path d="M1657.87285,262.432352 L1657.87285,614.978246 L1919.82107,596.998091 L1919.82107,291.353432 L1657.87285,262.432352" id="Fill-16" fill="#C71218"></path>
                        <path d="M1657.87285,614.978246 L1919.82107,596.998091 L1919.82107,785.433115 L1657.87285,614.978246" id="Fill-17" fill="#EE2E1C"></path>
                        <path d="M1657.87285,614.978246 L1919.82107,785.433115 L1919.82107,899.798889 L1745.85905,899.798889 L1657.87285,614.978246" id="Fill-18" fill="#ED3C25"></path>
                        <path d="M1657.87285,614.978246 L1745.85905,899.798889 L1207.88521,899.798889 L1657.87285,614.978246" id="Fill-19" fill="#DE2F1E"></path>
                        <path d="M1657.87285,614.978246 L1207.88521,899.798889 L560.161317,899.798889 L1657.87285,614.978246" id="Fill-20" fill="#CF1F13"></path>
                        <path d="M945.673095,799.802255 L449.480458,575.023345 L484.664381,899.798889 L560.161317,899.798889 L945.673095,799.802255" id="Fill-21" fill="#B81907"></path>
                        <path d="M449.480458,575.023345 L484.664381,899.798889 L0.605950677,899.798889 L449.480458,575.023345" id="Fill-22" fill="#AB1607"></path>
                        <path d="M449.480458,575.023345 L197.430566,757.387069 L41.6482635,666.206705 L449.480458,575.023345" id="Fill-23" fill="#AB1607"></path>
                        <path d="M197.430566,757.387069 L0.605950677,899.798889 L0.605950677,719.865482 L41.6482635,666.206705 L197.430566,757.387069" id="Fill-24" fill="#A71F0E"></path>
                        <path d="M41.6482635,666.206705 L32.0522119,416.19864 L449.480458,575.023345 L41.6482635,666.206705" id="Fill-25" fill="#91080B"></path>
                        <path d="M32.0522119,416.19864 L41.6482635,666.206705 L0.605950677,719.865482 L0.605950677,506.102413 L32.0522119,416.19864" id="Fill-26" fill="#991209"></path>
                    </g>
                </g>
            </g>
        </g>
    </g>
</svg>